<?xml version="1.0" encoding="UTF-8" standalone="no"?>
<svg
   width="395.77573"
   height="261.45639"
   viewBox="0 0 395.77574 261.45639"
   version="1.1"
   id="svg4090"
   sodipodi:docname="outline.svg"
   inkscape:version="1.4.1 (93de688d07, 2025-03-30)"
   inkscape:export-filename="outline_export.svg"
   inkscape:export-xdpi="96"
   inkscape:export-ydpi="96"
   xmlns:inkscape="http://www.inkscape.org/namespaces/inkscape"
   xmlns:sodipodi="http://sodipodi.sourceforge.net/DTD/sodipodi-0.dtd"
   xmlns="http://www.w3.org/2000/svg"
   xmlns:svg="http://www.w3.org/2000/svg">
  <defs
     id="defs4090">
    <inkscape:path-effect
       effect="fillet_chamfer"
       id="path-effect13"
       is_visible="true"
       lpeversion="1"
       nodesatellites_param="F,0,0,1,0,3.7795277,0,1 @ F,0,0,1,0,3.7795277,0,1 @ F,0,0,1,0,3.7795277,0,1 @ F,0,0,1,0,3.7795277,0,1 @ F,0,0,1,0,3.7795277,0,1 @ F,0,0,1,0,3.7795277,0,1 @ F,0,0,1,0,25.70824,0,1 @ F,0,0,1,0,6.8923579,0,1 @ F,0,0,1,0,24.07897,0,1 @ F,0,0,1,0,28.158338,0,1 @ F,0,0,1,0,24.10415,0,1 @ F,0,0,1,0,8.0372741,0,1 @ F,0,0,1,0,9.9388342,0,1 @ F,0,0,1,0,3.7795277,0,1 @ F,0,0,1,0,3.7795277,0,1 @ F,0,0,1,0,3.7795277,0,1 @ F,0,0,1,0,2.402242,0,1 @ F,0,0,1,0,2.4563419,0,1 @ F,0,0,1,0,3.7795277,0,1 @ F,0,0,1,0,3.7795277,0,1"
       radius="1"
       unit="mm"
       method="auto"
       mode="F"
       chamfer_steps="1"
       flexible="false"
       use_knot_distance="true"
       apply_no_radius="true"
       apply_with_radius="true"
       only_selected="false"
       hide_knots="false" />
    <inkscape:path-effect
       effect="offset"
       id="path-effect12"
       is_visible="true"
       lpeversion="1.3"
       linejoin_type="miter"
       unit="mm"
       offset="2"
       miter_limit="4"
       attempt_force_join="false"
       update_on_knot_move="true" />
  </defs>
  <sodipodi:namedview
     id="namedview4090"
     pagecolor="#ffffff"
     bordercolor="#000000"
     borderopacity="0.25"
     inkscape:showpageshadow="2"
     inkscape:pageopacity="0.0"
     inkscape:pagecheckerboard="0"
     inkscape:deskcolor="#d1d1d1"
     inkscape:zoom="2.0602043"
     inkscape:cx="372.53588"
     inkscape:cy="331.27783"
     inkscape:window-width="3440"
     inkscape:window-height="1376"
     inkscape:window-x="0"
     inkscape:window-y="0"
     inkscape:window-maximized="1"
     inkscape:current-layer="svg4090">
    <inkscape:page
       x="0"
       y="0"
       width="395.77573"
       height="261.45639"
       id="page2"
       margin="0"
       bleed="0" />
  </sodipodi:namedview>
  <path
     style="display:inline;fill:none;stroke:#000000;stroke-width:1.00157"
     d="m 239.30821,200.15389 -4.07541,5.71761 a 7.3353517,7.3353517 152.74029 0 1 -5.97327,3.07772 h -34.96242 a 7.4558127,7.4558127 153.11847 0 0 -6.01371,3.04849 l -4.37344,5.96747 a 7.4558127,7.4558127 153.11847 0 1 -6.01371,3.04849 H 88.340075 a 3.7760571,3.7760571 134.97368 0 0 -3.776056,3.77953 l 0.13954,151.89016 a 3.7830015,3.7830015 44.973681 0 0 3.783,3.77953 h 87.115751 a 48.782779,48.782779 27.788969 0 1 40.24071,21.20662 l 14.2413,20.78173 a 11.810399,11.810399 25.310794 0 0 10.76273,5.09 l 23.96284,-2.07808 a 567.16197,567.16197 177.47469 0 1 48.06788,-2.11996 l 1.18463,-0.002 a 321.43477,321.43477 4.9121819 0 1 55.89577,4.80393 l 0.546,0.0955 a 184.96084,184.96084 17.343585 0 1 45.63063,14.25045 l 31.05167,14.3272 a 7.745326,7.745326 158.7088 0 0 10.39294,-4.0502 l 17.94485,-43.0059 a 49.455002,49.455002 101.28585 0 0 3.81388,-19.11118 l -0.23147,-171.44376 a 3.773187,3.773187 44.87454 0 0 -3.78462,-3.76808 l -64.00934,0.1939 a 16.609064,16.609064 12.646253 0 1 -7.19182,-1.61366 l -1.15194,-0.54861 a 16.726117,16.726117 12.733034 0 0 -7.19184,-1.62511 l -39.52916,0 a 8.4016887,8.4016887 15.956489 0 1 -4.44139,-1.2699 l -0.56133,-0.34957 a 8.5908996,8.5908996 15.956489 0 0 -4.54142,-1.2985 l -34.20553,0 a 7.4626363,7.4626363 26.860395 0 1 -6.01595,-3.04684 l -4.22637,-5.75788 A 7.4626363,7.4626363 26.860395 0 0 296.24,197.07617 h -50.95852 a 7.3353517,7.3353517 152.74029 0 0 -5.97327,3.07772 z"
     id="path7"
     sodipodi:nodetypes="ccccccccccccccccccccc"
     inkscape:path-effect="#path-effect12;#path-effect13"
     inkscape:original-d="m 92.127059,228.57161 h 93.379601 l 8.8427,-12.0635 h 42.587 l 8.46066,-11.87302 h 50.7937 l 8.70032,11.852 h 42.10786 l 4.68333,2.91791 h 46.1656 l 7.9883,3.80459 65.71616,-0.20022 0.23864,176.07054 -21.26253,50.95464 -54.00953,-24.91712 -53.65037,-9.3832 -54.4136,0.0898 -50.73214,4.39978 -32.42848,-47.32007 H 92.260674 Z"
     inkscape:export-filename="outline_export.svg"
     inkscape:export-xdpi="96"
     inkscape:export-ydpi="96"
     transform="translate(-84.06323,-196.57538)" />
</svg>
