<?xml version="1.0" encoding="UTF-8" standalone="no"?>
<svg
   width="595.27557"
   height="841.88977"
   viewBox="0 0 595.27559 841.88976"
   version="1.1"
   id="svg4090"
   sodipodi:docname="outline.svg"
   inkscape:version="1.4.1 (93de688d07, 2025-03-30)"
   inkscape:export-filename="outline_export.svg"
   inkscape:export-xdpi="96"
   inkscape:export-ydpi="96"
   xmlns:inkscape="http://www.inkscape.org/namespaces/inkscape"
   xmlns:sodipodi="http://sodipodi.sourceforge.net/DTD/sodipodi-0.dtd"
   xmlns="http://www.w3.org/2000/svg"
   xmlns:svg="http://www.w3.org/2000/svg">
  <defs
     id="defs4090">
    <inkscape:path-effect
       effect="fillet_chamfer"
       id="path-effect13"
       is_visible="true"
       lpeversion="1"
       nodesatellites_param="F,0,0,1,0,3.7795277,0,1 @ F,0,0,1,0,3.7795277,0,1 @ F,0,0,1,0,3.7795277,0,1 @ F,0,0,1,0,3.7795277,0,1 @ F,0,0,1,0,3.7795277,0,1 @ F,0,0,1,0,3.7795277,0,1 @ F,0,0,1,0,25.70824,0,1 @ F,0,0,1,0,6.8923579,0,1 @ F,0,0,1,0,24.07897,0,1 @ F,0,0,1,0,28.158338,0,1 @ F,0,0,1,0,24.10415,0,1 @ F,0,0,1,0,8.0372741,0,1 @ F,0,0,1,0,9.9388342,0,1 @ F,0,0,1,0,3.7795277,0,1 @ F,0,0,1,0,3.7795277,0,1 @ F,0,0,1,0,3.7795277,0,1 @ F,0,0,1,0,2.402242,0,1 @ F,0,0,1,0,2.4563419,0,1 @ F,0,0,1,0,3.7795277,0,1 @ F,0,0,1,0,3.7795277,0,1"
       radius="1"
       unit="mm"
       method="auto"
       mode="F"
       chamfer_steps="1"
       flexible="false"
       use_knot_distance="true"
       apply_no_radius="true"
       apply_with_radius="true"
       only_selected="false"
       hide_knots="false" />
    <inkscape:path-effect
       effect="offset"
       id="path-effect12"
       is_visible="true"
       lpeversion="1.3"
       linejoin_type="miter"
       unit="mm"
       offset="1.5"
       miter_limit="4"
       attempt_force_join="false"
       update_on_knot_move="true" />
  </defs>
  <sodipodi:namedview
     id="namedview4090"
     pagecolor="#ffffff"
     bordercolor="#000000"
     borderopacity="0.25"
     inkscape:showpageshadow="2"
     inkscape:pageopacity="0.0"
     inkscape:pagecheckerboard="0"
     inkscape:deskcolor="#d1d1d1"
     inkscape:zoom="1.4567844"
     inkscape:cx="345.62424"
     inkscape:cy="357.29378"
     inkscape:window-width="2560"
     inkscape:window-height="1376"
     inkscape:window-x="0"
     inkscape:window-y="0"
     inkscape:window-maximized="1"
     inkscape:current-layer="svg4090">
    <inkscape:page
       x="0"
       y="0"
       width="595.27557"
       height="841.88977"
       id="page2"
       margin="0"
       bleed="0" />
  </sodipodi:namedview>
  <path
     style="display:inline;fill:none;stroke:#000000;stroke-width:1.00157"
     d="m 240.28121,202.0428 -4.07413,5.71714 a 7.3343692,7.3343692 152.73716 0 1 -5.97294,3.07795 h -34.97805 a 7.4567863,7.4567863 153.12149 0 0 -6.01403,3.04825 l -4.37475,5.96795 a 7.4567863,7.4567863 153.12149 0 1 -6.01403,3.04825 H 90.232653 a 3.7760677,3.7760677 134.97376 0 0 -3.776066,3.77953 l 0.135654,148.11282 a 3.7829909,3.7829909 44.973762 0 0 3.78299,3.77953 h 86.225119 a 48.781991,48.781991 27.789351 0 1 40.24044,21.20681 l 14.17916,20.69164 a 11.810279,11.810279 25.311304 0 0 10.76265,5.09009 l 22.92963,-1.98838 a 567.38106,567.38106 177.47401 0 1 48.06788,-2.12053 l 1.45026,-0.002 a 321.3373,321.3373 4.9120748 0 1 55.89565,4.80381 l 0.94075,0.16453 a 185.0112,185.0112 17.342991 0 1 45.63099,14.25004 l 29.50028,13.60977 a 7.7455634,7.7455634 158.70708 0 0 10.39298,-4.05058 l 17.04275,-40.84564 a 49.457459,49.457459 101.28556 0 0 3.81379,-19.11124 l -0.22763,-169.16837 a 3.7732466,3.7732466 44.875254 0 0 -3.7846,-3.76815 l -62.54644,0.18819 a 16.609482,16.609482 12.647108 0 1 -7.19181,-1.61376 l -1.15588,-0.5505 a 16.725748,16.725748 12.733305 0 0 -7.19182,-1.62515 h -39.6444 a 8.3987159,8.3987159 15.961849 0 1 -4.44116,-1.27028 l -0.55985,-0.3488 a 8.58786,8.58786 15.961849 0 0 -4.54117,-1.29888 l -34.62155,0 a 7.4626363,7.4626363 26.860395 0 1 -6.01596,-3.04684 l -4.22637,-5.75789 a 7.4626363,7.4626363 26.860395 0 0 -6.01595,-3.04684 l -49.02883,0 a 7.3343692,7.3343692 152.73716 0 0 -5.97293,3.07796 z"
     id="path7"
     sodipodi:nodetypes="ccccccccccccccccccccc"
     inkscape:path-effect="#path-effect12;#path-effect13"
     inkscape:original-d="m 92.127059,228.57161 h 93.379601 l 8.8427,-12.0635 h 42.587 l 8.46066,-11.87302 h 50.7937 l 8.70032,11.852 h 42.10786 l 4.68333,2.91791 h 46.1656 l 7.9883,3.80459 65.71616,-0.20022 0.23864,176.07054 -21.26253,50.95464 -54.00953,-24.91712 -53.65037,-9.3832 -54.4136,0.0898 -50.73214,4.39978 -32.42848,-47.32007 H 92.260674 Z" />
</svg>
